HIERARCHY
ROOT Hips
{
	OFFSET 0.000000 0.000000 0.000000
	CHANNELS 6 Xposition Yposition Zposition Zrotation Yrotation Xrotation 
	JOINT LHipJoint
	{
		OFFSET 0.000000 0.000000 0.000000
		CHANNELS 3 Zrotation Yrotation Xrotation
		JOINT LeftUpLeg
		{
			OFFSET 1.363060 -1.794630 0.839290
			CHANNELS 3 Zrotation Yrotation Xrotation
			JOINT LeftLeg
			{
				OFFSET 2.448110 -6.726130 0.000000
				CHANNELS 3 Zrotation Yrotation Xrotation
				JOINT LeftFoot
				{
					OFFSET 2.562200 -7.039590 0.000000
					CHANNELS 3 Zrotation Yrotation Xrotation
					JOINT LeftToeBase
					{
						OFFSET 0.157640 -0.433110 2.322550
						CHANNELS 3 Zrotation Yrotation Xrotation
						End Site
						{
							OFFSET 0.000000 0.000000 0.000000
						}
					}
				}
			}
		}
	}
	JOINT RHipJoint
	{
		OFFSET 0.000000 0.000000 0.000000
		CHANNELS 3 Zrotation Yrotation Xrotation
		JOINT RightUpLeg
		{
			OFFSET -1.305520 -1.794630 0.839290
			CHANNELS 3 Zrotation Yrotation Xrotation
			JOINT RightLeg
			{
				OFFSET -2.542530 -6.985550 0.000000
				CHANNELS 3 Zrotation Yrotation Xrotation
				JOINT RightFoot
				{
					OFFSET -2.568260 -7.056230 0.000000
					CHANNELS 3 Zrotation Yrotation Xrotation
					JOINT RightToeBase
					{
						OFFSET -0.164730 -0.452590 2.363150
						CHANNELS 3 Zrotation Yrotation Xrotation
						End Site
						{
							OFFSET 0.000000 0.000000 0.000000
						}
					}
				}
			}
		}
	}
	JOINT LowerBack
	{
		OFFSET 0.000000 0.000000 0.000000
		CHANNELS 3 Zrotation Yrotation Xrotation
		JOINT Spine
		{
			OFFSET 0.028270 2.035590 -0.193380
			CHANNELS 3 Zrotation Yrotation Xrotation
			JOINT Spine1
			{
				OFFSET 0.056720 2.048850 -0.042750
				CHANNELS 3 Zrotation Yrotation Xrotation
				JOINT Neck
				{
					OFFSET 0.000000 0.000000 0.000000
					CHANNELS 3 Zrotation Yrotation Xrotation
					JOINT Neck1
					{
						OFFSET -0.054170 1.746240 0.172020
						CHANNELS 3 Zrotation Yrotation Xrotation
						JOINT Head
						{
							OFFSET 0.104070 1.761360 -0.123970
							CHANNELS 3 Zrotation Yrotation Xrotation
							End Site
							{
								OFFSET 0.000000 0.000000 0.000000
							}
						}
					}
				}
				JOINT LeftShoulder
				{
					OFFSET 0.000000 0.000000 0.000000
					CHANNELS 3 Zrotation Yrotation Xrotation
					JOINT LeftArm
					{
						OFFSET 3.362410 1.200890 -0.311210
						CHANNELS 3 Zrotation Yrotation Xrotation
						JOINT LeftForeArm
						{
							OFFSET 4.983000 -0.000000 -0.000000
							CHANNELS 3 Zrotation Yrotation Xrotation
							JOINT LeftHand
							{
								OFFSET 3.483560 -0.000000 -0.000000
								CHANNELS 3 Zrotation Yrotation Xrotation
								JOINT LeftFingerBase
								{
									OFFSET 0.000000 0.000000 0.000000
									CHANNELS 3 Zrotation Yrotation Xrotation
									JOINT LeftHandIndex1
									{
										OFFSET 0.715260 -0.000000 -0.000000
										CHANNELS 3 Zrotation Yrotation Xrotation
										End Site
										{
											OFFSET 0.000000 0.000000 0.000000
										}
									}
								}
								JOINT LThumb
								{
									OFFSET 0.000000 0.000000 0.000000
									CHANNELS 3 Zrotation Yrotation Xrotation
									End Site
									{
										OFFSET 0.000000 0.000000 0.000000
									}
								}
							}
						}
					}
				}
				JOINT RightShoulder
				{
					OFFSET 0.000000 0.000000 0.000000
					CHANNELS 3 Zrotation Yrotation Xrotation
					JOINT RightArm
					{
						OFFSET -3.136600 1.374050 -0.404650
						CHANNELS 3 Zrotation Yrotation Xrotation
						JOINT RightForeArm
						{
							OFFSET -5.241900 -0.000000 -0.000000
							CHANNELS 3 Zrotation Yrotation Xrotation
							JOINT RightHand
							{
								OFFSET -3.444170 -0.000000 -0.000000
								CHANNELS 3 Zrotation Yrotation Xrotation
								JOINT RightFingerBase
								{
									OFFSET 0.000000 0.000000 0.000000
									CHANNELS 3 Zrotation Yrotation Xrotation
									JOINT RightHandIndex1
									{
										OFFSET -0.622530 -0.000000 -0.000000
										CHANNELS 3 Zrotation Yrotation Xrotation
										End Site
										{
											OFFSET 0.000000 0.000000 0.000000
										}
									}
								}
								JOINT RThumb
								{
									OFFSET 0.000000 0.000000 0.000000
									CHANNELS 3 Zrotation Yrotation Xrotation
									End Site
									{
										OFFSET 0.000000 0.000000 0.000000
									}
								}
							}
						}
					}
				}
			}
		}
	}
}
MOTION
Frames: 7
Frame Time: 0.008333
1.119737 17.979131 -10.127730 -3.133242 -3.810392 10.327003 -1.102841 0.572629 0.693382 -13.972122 -3.413915 -16.601731 0.547790 7.932703 23.547629 0.009974 1.896387 -8.182707 0.080800 -1.833400 -5.045400 3.264186 0.726682 0.347129 20.877201 5.571714 -13.543354 -1.890961 -8.081655 22.386816 -0.164318 -1.998268 -10.481946 -0.229400 -3.083000 8.509900 -5.476895 -0.089352 -7.551780 5.924525 0.675823 -0.250858 5.490740 0.428874 1.249926 0.633347 -1.008260 -18.447440 -0.869703 -0.845709 22.455503 -1.840500 -0.352900 11.893000 0.099814 5.188629 -0.936796 -90.512748 1.341192 24.854209 21.349810 -34.450897 -5.562574 1.079111 1.306194 -6.733696 17.370928 34.069684 8.978200 -7.125000 0.000000 0.000000 -19.974800 63.051900 -8.937200 -0.306384 -4.542442 -1.102383 86.001377 2.138206 30.196830 -15.292760 26.327972 -2.915347 -0.041372 0.326909 -9.908502 -20.297835 16.192503 -5.769600 7.125000 0.000000 0.000000 4.941800 -13.193700 3.697500 
1.117663 17.972017 -10.126742 -3.132571 -3.821016 10.353772 -1.108309 0.573589 0.683034 -13.955369 -3.453466 -16.547496 0.536234 7.918628 23.495458 -0.006369 2.040396 -8.229558 0.142300 -2.430700 -6.697500 3.258351 0.731009 0.324749 20.889985 5.700057 -13.602892 -1.912644 -8.131901 22.548774 -0.165135 -2.060304 -10.632165 -0.237800 -3.138500 8.664600 -5.445219 -0.078194 -7.397842 5.860666 0.695540 -0.481228 5.472218 0.432211 1.137766 0.704677 -0.931198 -18.736579 -0.748661 -0.717009 23.199010 -1.792800 -0.256200 12.193800 0.112298 5.217849 -0.920659 -90.422111 1.466404 24.756423 21.255410 -34.322409 -5.500068 1.065920 1.330319 -6.340411 16.608524 34.564321 8.651500 -7.125000 0.000000 0.000000 -21.216700 63.276300 -9.629900 -0.317014 -4.509531 -1.072033 86.076205 1.962332 30.011979 -15.050072 25.958179 -2.801664 -0.036505 0.356503 -9.959021 -20.362032 17.142968 -6.116800 7.125000 0.000000 0.000000 4.939500 -12.220300 3.796500 
1.115686 17.970733 -10.124370 -3.172366 -3.906728 10.328880 -1.112456 0.577953 0.683698 -13.902500 -3.411460 -16.545743 0.540882 7.930942 23.524672 -0.006922 2.056926 -8.254551 0.140100 -2.412600 -6.647300 3.251867 0.735099 0.316775 20.952237 5.750890 -13.526034 -1.911864 -8.128662 22.540419 -0.161069 -2.097022 -10.630223 -0.204900 -2.914500 8.040700 -5.336705 -0.048552 -7.332358 5.797570 0.727177 -0.531146 5.410040 0.440278 1.072940 0.589319 -0.919331 -19.326260 -0.320208 -0.639295 24.300234 -1.620600 -0.148800 12.677400 0.127745 5.280697 -0.915315 -90.348278 1.526196 24.753309 21.123672 -34.152286 -5.419529 1.071248 1.342949 -6.374259 16.736180 34.795228 8.771800 -7.125000 0.000000 0.000000 -21.297900 63.513500 -9.786700 -0.323611 -4.444365 -1.040841 86.156655 1.795065 29.893622 -14.852216 25.647462 -2.703855 -0.036820 0.388126 -10.171808 -20.591993 18.173762 -6.547300 7.125000 0.000000 0.000000 4.840700 -11.145900 3.827700 
1.114600 17.971721 -10.120517 -3.167768 -3.950928 10.278766 -1.115408 0.583655 0.692633 -13.913263 -3.419383 -16.474121 0.540951 7.928147 23.523955 -0.010557 2.094457 -8.283460 0.132800 -2.349100 -6.471500 3.249721 0.736861 0.323999 20.949504 5.612565 -13.527059 -1.916833 -8.140180 22.571011 -0.183201 -1.893361 -10.642497 -0.203600 -2.905200 8.015000 -5.309607 -0.032246 -7.357325 5.788718 0.742669 -0.442327 5.400244 0.446025 1.082310 0.526111 -0.869380 -19.601635 -0.138280 -0.534903 24.820834 -1.531000 -0.072400 12.914800 0.135991 5.307429 -0.919749 -90.357506 1.469047 24.643171 20.947542 -33.924316 -5.311544 1.075498 1.358674 -6.142177 16.608146 35.197804 8.781800 -7.125000 0.000000 0.000000 -21.816200 63.831200 -10.198200 -0.331121 -4.414295 -1.034159 86.174830 1.718647 29.707216 -14.727144 25.453413 -2.649332 -0.034275 0.398027 -10.029523 -20.573251 18.427824 -6.628100 7.125000 0.000000 0.000000 4.865900 -10.892300 3.873100 
1.112525 17.972907 -10.114984 -3.068975 -3.950897 10.244949 -1.120253 0.582147 0.692998 -14.025018 -3.400083 -16.419325 0.541499 7.925603 23.525680 -0.003841 2.055446 -8.315092 0.127700 -2.303600 -6.345400 3.242506 0.741685 0.327167 20.848656 5.346978 -13.579357 -1.918094 -8.146804 22.579015 -0.211059 -1.597092 -10.581999 -0.254800 -3.247700 8.969100 -5.398844 -0.026891 -7.369501 5.742742 0.754600 -0.452970 5.457582 0.451851 1.090320 0.566263 -0.821386 -19.564057 -0.215905 -0.455492 24.999498 -1.548800 -0.041000 12.977000 0.143220 5.302515 -0.917650 -90.380202 1.491278 24.457693 20.771827 -33.696175 -5.213482 1.070769 1.365461 -5.727626 16.065103 35.369192 8.501400 -7.125000 0.000000 0.000000 -22.550100 63.824800 -10.555100 -0.332487 -4.409714 -1.033125 86.163294 1.606221 29.450456 -14.666370 25.363343 -2.634255 -0.027331 0.386672 -9.534925 -20.267814 17.941582 -6.358000 7.125000 0.000000 0.000000 5.037500 -11.426600 3.955300 
1.109659 17.974586 -10.109748 -2.989790 -3.953934 10.221436 -1.125513 0.579663 0.692481 -14.114982 -3.226870 -16.437558 0.544281 7.923886 23.525214 0.020206 1.874586 -8.310636 0.128500 -2.311000 -6.365900 3.232540 0.744843 0.323336 20.773020 5.233724 -13.570916 -1.919987 -8.153964 22.591332 -0.217664 -1.470048 -10.452659 -0.329500 -3.689100 10.203700 -5.450674 -0.018620 -7.347724 5.662411 0.766679 -0.510426 5.493535 0.456956 1.072992 0.632570 -0.816258 -19.598130 -0.313362 -0.430308 25.331528 -1.587000 -0.029600 13.105500 0.152202 5.302714 -0.911810 -90.351264 1.590001 24.483999 20.610736 -33.491342 -5.135867 1.077918 1.353873 -6.063385 16.441807 34.935207 8.625700 -7.125000 0.000000 0.000000 -21.741600 63.546500 -10.017200 -0.328722 -4.399675 -1.025371 86.176861 1.455430 29.203752 -14.657335 25.352535 -2.643434 -0.022437 0.368025 -9.071055 -19.945491 17.224081 -6.009700 7.125000 0.000000 0.000000 5.213400 -12.195000 4.011500 
1.108276 17.975673 -10.107475 -2.923127 -3.926266 10.209423 -1.128421 0.579094 0.694384 -14.185077 -3.150727 -16.451000 0.543939 7.918867 23.513573 0.033284 1.766775 -8.288360 0.128000 -2.306600 -6.353700 3.229163 0.745273 0.323442 20.705297 5.222429 -13.568914 -1.923589 -8.164452 22.620581 -0.217227 -1.458938 -10.419296 -0.377600 -3.946400 10.925800 -5.502447 -0.035592 -7.350566 5.638798 0.745165 -0.494837 5.532852 0.446816 1.074362 0.699647 -0.804955 -19.752758 -0.453280 -0.379064 25.761270 -1.637100 -0.011700 13.296400 0.156972 5.307410 -0.910473 -90.365750 1.611059 24.468483 20.453204 -33.283727 -5.047149 1.088132 1.356777 -6.281351 16.821553 34.942341 8.843200 -7.125000 0.000000 0.000000 -21.355500 63.658600 -9.886900 -0.333172 -4.387982 -1.021142 86.145958 1.356127 29.051400 -14.622458 25.298419 -2.634966 -0.019284 0.360460 -8.805770 -19.764290 16.918745 -5.849900 7.125000 0.000000 0.000000 5.318800 -12.526600 4.056500 
